<?xml version="1.0" encoding="UTF-8"?>
<svg id="Layer_1" xmlns="http://www.w3.org/2000/svg" width="303" height="23" version="1.1" viewBox="0 0 303 23">
  <!-- Generator: Adobe Illustrator 29.2.1, SVG Export Plug-In . SVG Version: 2.1.0 Build 116)  -->
  <defs>
    <style>
      .st0 {
        fill: #0080ff;
      }
    </style>
  </defs>
  <path class="st0" d="M11.43,6.19h.06s5.31,0,5.31,0c3.42,0,6.19-2.77,6.19-6.19h0s-11.5,0-11.5,0C5.15,0,0,5.15,0,11.5h0c0,6.35,5.15,11.5,11.5,11.5h8.34s2.6,0,2.6,0h.26v-.26s0-5.47,0-5.47v-6.83c0-.38-.31-.69-.69-.69h-7.7c-.19,0-.38.08-.51.22l-2.65,2.87c-.15.16-.05.41.17.43.99.09,3.41.33,4.94,1.08,2.28,1.12,3.42,2.91,3.42,2.91h0s-8.24,0-8.24,0c-3.06,0-5.54-2.48-5.54-5.54h0c0-3.06,2.48-5.54,5.54-5.54Z"/>
  <g>
    <path class="st0" d="M56.47,20.82h-21.98v-3.18h21.98v3.18ZM50.68,9.31v-4.58h-15.17V1.49h19.77v7.28c0,2.37-.21,5.04-.68,6.9h-4.6c.47-1.82.68-4.3.68-6.35Z"/>
    <path class="st0" d="M69.42,13.87h-10.67v-7.74h8.25v-1.82h-8.25V1.38h12.75v7.67h-8.28v1.91h6.81c2.16,0,3.37-.22,4.29-.72V1.14h4.6v15.01h-4.6v-3.09c-.89.57-2.42.81-4.89.81ZM79.22,18.67v3.11h-19.11v-6.88h4.6v3.77h14.51Z"/>
    <path class="st0" d="M84.92,8.53h-2.58v-2.89h2.68c2.08,0,3.89-.02,5.02-.26.05-.31.1-.66.1-1.03h-7.81V1.38h12.33v2.15c0,.66-.05,1.27-.16,1.84h3.39V1.14h4.6v11.55h-4.6v-4.14h-4.65c-1.95,2.83-5.86,4.27-11.46,4.6v-3c3-.22,5.15-.75,6.52-1.8-1,.13-2.18.18-3.39.18ZM102.5,21.87h-18.8v-8.37h18.8v8.37ZM97.96,18.87v-2.3h-9.7v2.3h9.7Z"/>
    <path class="st0" d="M109.52,17.05h-4.21v-3.2h21.98v3.2h-4.18v4.82h-4.5v-4.82h-4.57v4.82h-4.52v-4.82ZM122.69,8.72h3.81v3.16h-20.4v-3.16h3.34v-4.19h-2.94V1.38h19.61v3.16h-2.97v1.53c0,.96-.16,1.99-.45,2.65ZM118.59,4.54h-4.57v4.19h4.18c.26-.64.39-1.6.39-2.45v-1.73Z"/>
    <path class="st0" d="M134.34,9.29h6.52v3.13h-6.52v4.8h4.89c1.87,0,3.29-.09,4.39-.37v3c-1.1.37-2.6.5-4.52.5h-9.28V1.49h12.15v3.18h-7.62v4.62ZM145.2,1.14h4.6v20.53h-4.6v-9.51h-3.47v-3.22h3.47V1.14Z"/>
    <path class="st0" d="M153.01,10.91c0-4.05.63-6.79,2.34-8.31,1.05-.96,2.5-1.45,4.36-1.45s3.31.48,4.36,1.45c1.68,1.51,2.31,4.25,2.31,8.31s-.63,6.84-2.31,8.35c-1.05.94-2.55,1.4-4.36,1.4s-3.31-.46-4.36-1.4c-1.71-1.51-2.34-4.25-2.34-8.35ZM161.84,10.91c0-3.44-.26-5.33-.95-6.11-.32-.31-.74-.46-1.18-.46-.47,0-.89.15-1.18.46-.71.79-.95,2.67-.95,6.11s.24,5.39.95,6.16c.29.31.71.44,1.18.44.45,0,.87-.13,1.18-.44.68-.77.95-2.67.95-6.16ZM168.34,1.14h4.6v7.91h3.39v3.2h-3.39v9.42h-4.6V1.14Z"/>
    <path class="st0" d="M199.02,20.82h-21.98v-3.18h21.98v3.18ZM197.84,1.49v3.16h-15.01v2.13h14.75v3.11h-14.75v2.17h15.3v3.13h-19.9V1.49h19.61Z"/>
    <path class="st0" d="M214.49,2.43v2.89h-14.38v-2.89h4.94V.57h4.6v1.86h4.84ZM200.74,9.86c0-1.23.66-2.26,1.81-3,1.1-.7,2.71-1.12,4.76-1.12s3.63.42,4.73,1.12c1.16.75,1.81,1.77,1.81,3s-.66,2.28-1.81,3c-1.1.7-2.71,1.14-4.73,1.14s-3.65-.44-4.76-1.14c-1.16-.72-1.81-1.75-1.81-3ZM201.85,17.75v-3.16h18.85v7.41h-4.6v-4.25h-14.25ZM205.11,9.86c0,.37.21.68.5.92.39.28,1,.42,1.71.42s1.29-.13,1.68-.42c.29-.24.5-.55.5-.92s-.21-.68-.5-.9c-.39-.28-1-.44-1.68-.44s-1.31.15-1.71.44c-.29.22-.5.53-.5.9ZM216.09,1.14h4.6v4.82h3.23v3.18h-3.23v4.67h-4.6V1.14Z"/>
    <path class="st0" d="M229.7,12.45h-4.6v-2.94h11.57c1.5,0,2.84,0,4-.24v2.81c-1.13.31-2.52.37-4.13.37h-2.29v2.94h-4.55v-2.94ZM225.94,5.08c0-1.14.55-2.06,1.5-2.7,1.24-.88,3.21-1.29,5.55-1.29s4.26.42,5.49,1.29c.97.64,1.52,1.56,1.52,2.7s-.55,2.06-1.52,2.72c-1.24.88-3.21,1.27-5.49,1.27s-4.31-.39-5.55-1.27c-.95-.66-1.5-1.58-1.5-2.72ZM246.39,18.85v3.02h-19.11v-5.96h4.6v2.94h14.51ZM235.8,5.08c0-.33-.16-.59-.42-.79-.47-.33-1.34-.48-2.39-.48s-1.95.15-2.42.48c-.29.2-.45.46-.45.79,0,.35.16.61.45.79.47.33,1.34.5,2.42.5s1.92-.18,2.39-.5c.26-.18.42-.44.42-.79ZM246.08,1.14v15.69h-4.6v-1.1h-4.86v-2.72h4.86V1.14h4.6Z"/>
    <path class="st0" d="M279.4,13.26h-22.29v-3.05h8.81v-1.93h4.57v1.93h8.91v3.05ZM258.21,18.1c0-1.23.66-2.1,1.87-2.76,1.71-.92,4.55-1.31,8.2-1.31s6.47.39,8.18,1.31c1.21.66,1.89,1.53,1.89,2.76s-.68,2.1-1.89,2.76c-1.71.94-4.55,1.29-8.18,1.29s-6.49-.35-8.2-1.29c-1.21-.66-1.87-1.53-1.87-2.76ZM277.9,4.34h-7.12c.87,1.29,3.71,1.86,7.39,1.97v2.89c-3.5-.07-7.76-.81-9.94-2.17-2.16,1.38-6.18,2.13-9.91,2.17v-2.89c3.58-.11,6.47-.64,7.33-1.97h-7.05V1.38h19.3v2.96ZM262.71,18.1c0,.28.18.46.47.61.76.39,2.39.53,5.1.53s4.31-.13,5.07-.53c.29-.15.45-.33.45-.61,0-.26-.16-.46-.45-.64-.76-.35-2.39-.53-5.07-.53s-4.34.18-5.1.53c-.29.18-.47.37-.47.64Z"/>
    <path class="st0" d="M301.82,9.77h-15.01v2.04h15.3v3.18h-7.78v2.7h8.68v3.13h-21.98v-3.13h8.7v-2.7h-7.52V6.64h15.01v-1.99h-15.01V1.49h19.61v8.28Z"/>
  </g>
</svg>